<mxfile host="app.diagrams.net" modified="2024-01-11T08:14:47.129Z" agent="Mozilla/5.0 (Windows NT 10.0; Win64; x64) AppleWebKit/537.36 (KHTML, like Gecko) Chrome/120.0.0.0 Safari/537.36 Edg/120.0.0.0" etag="ORy5JEsvi6mDpAqXQ0wt" version="22.1.18" type="github">
  <diagram id="prtHgNgQTEPvFCAcTncT" name="Page-1">
    <mxGraphModel dx="1407" dy="720" grid="1" gridSize="10" guides="1" tooltips="1" connect="1" arrows="1" fold="1" page="1" pageScale="1" pageWidth="827" pageHeight="1169" math="0" shadow="0">
      <root>
        <mxCell id="0" />
        <mxCell id="1" parent="0" />
        <mxCell id="UotE7CJrFkmpILPnAZ5Y-2" value="找回密码" style="swimlane;childLayout=stackLayout;resizeParent=1;resizeParentMax=0;startSize=20;html=1;" vertex="1" parent="1">
          <mxGeometry x="130.00000000000045" y="120" width="620" height="880" as="geometry" />
        </mxCell>
        <mxCell id="UotE7CJrFkmpILPnAZ5Y-3" value="用户" style="swimlane;startSize=20;html=1;" vertex="1" parent="UotE7CJrFkmpILPnAZ5Y-2">
          <mxGeometry y="20" width="300" height="860" as="geometry" />
        </mxCell>
        <mxCell id="UotE7CJrFkmpILPnAZ5Y-6" value="" style="ellipse;html=1;shape=startState;fillColor=#000000;strokeColor=#ff0000;" vertex="1" parent="UotE7CJrFkmpILPnAZ5Y-3">
          <mxGeometry x="134.99999999999955" y="30" width="30" height="30" as="geometry" />
        </mxCell>
        <mxCell id="UotE7CJrFkmpILPnAZ5Y-7" value="" style="edgeStyle=orthogonalEdgeStyle;html=1;verticalAlign=bottom;endArrow=open;endSize=8;strokeColor=#ff0000;rounded=0;" edge="1" source="UotE7CJrFkmpILPnAZ5Y-8" parent="UotE7CJrFkmpILPnAZ5Y-3">
          <mxGeometry relative="1" as="geometry">
            <mxPoint x="149.99999999999955" y="90" as="targetPoint" />
          </mxGeometry>
        </mxCell>
        <mxCell id="UotE7CJrFkmpILPnAZ5Y-9" value="" style="edgeStyle=orthogonalEdgeStyle;html=1;verticalAlign=bottom;endArrow=open;endSize=8;strokeColor=#ff0000;rounded=0;" edge="1" parent="UotE7CJrFkmpILPnAZ5Y-3" source="UotE7CJrFkmpILPnAZ5Y-6" target="UotE7CJrFkmpILPnAZ5Y-8">
          <mxGeometry relative="1" as="geometry">
            <mxPoint x="280" y="230" as="targetPoint" />
            <mxPoint x="280.00000000000045" y="200" as="sourcePoint" />
          </mxGeometry>
        </mxCell>
        <mxCell id="UotE7CJrFkmpILPnAZ5Y-8" value="进入密码找回页面" style="rounded=1;whiteSpace=wrap;html=1;shadow=0;comic=0;labelBackgroundColor=none;strokeWidth=1;fontFamily=Verdana;fontSize=12;align=center;arcSize=50;" vertex="1" parent="UotE7CJrFkmpILPnAZ5Y-3">
          <mxGeometry x="107.49999999999955" y="90" width="85" height="30" as="geometry" />
        </mxCell>
        <mxCell id="UotE7CJrFkmpILPnAZ5Y-15" style="edgeStyle=orthogonalEdgeStyle;rounded=0;orthogonalLoop=1;jettySize=auto;html=1;" edge="1" parent="UotE7CJrFkmpILPnAZ5Y-3" source="UotE7CJrFkmpILPnAZ5Y-12" target="UotE7CJrFkmpILPnAZ5Y-14">
          <mxGeometry relative="1" as="geometry" />
        </mxCell>
        <mxCell id="UotE7CJrFkmpILPnAZ5Y-12" value="输入回答" style="rounded=1;whiteSpace=wrap;html=1;shadow=0;comic=0;labelBackgroundColor=none;strokeWidth=1;fontFamily=Verdana;fontSize=12;align=center;arcSize=50;" vertex="1" parent="UotE7CJrFkmpILPnAZ5Y-3">
          <mxGeometry x="107.49999999999955" y="170" width="85" height="30" as="geometry" />
        </mxCell>
        <mxCell id="UotE7CJrFkmpILPnAZ5Y-14" value="点击提交" style="rounded=1;whiteSpace=wrap;html=1;shadow=0;comic=0;labelBackgroundColor=none;strokeWidth=1;fontFamily=Verdana;fontSize=12;align=center;arcSize=50;" vertex="1" parent="UotE7CJrFkmpILPnAZ5Y-3">
          <mxGeometry x="107.49999999999955" y="240" width="85" height="30" as="geometry" />
        </mxCell>
        <mxCell id="UotE7CJrFkmpILPnAZ5Y-50" style="edgeStyle=orthogonalEdgeStyle;rounded=0;orthogonalLoop=1;jettySize=auto;html=1;entryX=0.5;entryY=0;entryDx=0;entryDy=0;" edge="1" parent="UotE7CJrFkmpILPnAZ5Y-3" source="UotE7CJrFkmpILPnAZ5Y-47" target="UotE7CJrFkmpILPnAZ5Y-48">
          <mxGeometry relative="1" as="geometry" />
        </mxCell>
        <mxCell id="UotE7CJrFkmpILPnAZ5Y-47" value="输入验证码" style="rounded=1;whiteSpace=wrap;html=1;shadow=0;comic=0;labelBackgroundColor=none;strokeWidth=1;fontFamily=Verdana;fontSize=12;align=center;arcSize=50;" vertex="1" parent="UotE7CJrFkmpILPnAZ5Y-3">
          <mxGeometry x="107.49999999999955" y="400" width="85" height="30" as="geometry" />
        </mxCell>
        <mxCell id="UotE7CJrFkmpILPnAZ5Y-48" value="点击提交" style="rounded=1;whiteSpace=wrap;html=1;shadow=0;comic=0;labelBackgroundColor=none;strokeWidth=1;fontFamily=Verdana;fontSize=12;align=center;arcSize=50;" vertex="1" parent="UotE7CJrFkmpILPnAZ5Y-3">
          <mxGeometry x="107.49999999999955" y="490" width="85" height="30" as="geometry" />
        </mxCell>
        <mxCell id="UotE7CJrFkmpILPnAZ5Y-11" style="edgeStyle=orthogonalEdgeStyle;rounded=0;orthogonalLoop=1;jettySize=auto;html=1;" edge="1" parent="UotE7CJrFkmpILPnAZ5Y-2" source="UotE7CJrFkmpILPnAZ5Y-8" target="UotE7CJrFkmpILPnAZ5Y-10">
          <mxGeometry relative="1" as="geometry" />
        </mxCell>
        <mxCell id="UotE7CJrFkmpILPnAZ5Y-13" style="edgeStyle=orthogonalEdgeStyle;rounded=0;orthogonalLoop=1;jettySize=auto;html=1;entryX=0.5;entryY=0;entryDx=0;entryDy=0;" edge="1" parent="UotE7CJrFkmpILPnAZ5Y-2" source="UotE7CJrFkmpILPnAZ5Y-10" target="UotE7CJrFkmpILPnAZ5Y-12">
          <mxGeometry relative="1" as="geometry">
            <Array as="points">
              <mxPoint x="450" y="170" />
              <mxPoint x="150" y="170" />
            </Array>
          </mxGeometry>
        </mxCell>
        <mxCell id="UotE7CJrFkmpILPnAZ5Y-17" style="edgeStyle=orthogonalEdgeStyle;rounded=0;orthogonalLoop=1;jettySize=auto;html=1;entryX=0;entryY=0.5;entryDx=0;entryDy=0;" edge="1" parent="UotE7CJrFkmpILPnAZ5Y-2" source="UotE7CJrFkmpILPnAZ5Y-14" target="UotE7CJrFkmpILPnAZ5Y-16">
          <mxGeometry relative="1" as="geometry" />
        </mxCell>
        <mxCell id="UotE7CJrFkmpILPnAZ5Y-49" style="edgeStyle=orthogonalEdgeStyle;rounded=0;orthogonalLoop=1;jettySize=auto;html=1;" edge="1" parent="UotE7CJrFkmpILPnAZ5Y-2" source="UotE7CJrFkmpILPnAZ5Y-44" target="UotE7CJrFkmpILPnAZ5Y-47">
          <mxGeometry relative="1" as="geometry" />
        </mxCell>
        <mxCell id="UotE7CJrFkmpILPnAZ5Y-51" style="edgeStyle=orthogonalEdgeStyle;rounded=0;orthogonalLoop=1;jettySize=auto;html=1;entryX=0;entryY=0.5;entryDx=0;entryDy=0;" edge="1" parent="UotE7CJrFkmpILPnAZ5Y-2" source="UotE7CJrFkmpILPnAZ5Y-48" target="UotE7CJrFkmpILPnAZ5Y-38">
          <mxGeometry relative="1" as="geometry" />
        </mxCell>
        <mxCell id="UotE7CJrFkmpILPnAZ5Y-4" value="账号管理子系统" style="swimlane;startSize=20;html=1;" vertex="1" parent="UotE7CJrFkmpILPnAZ5Y-2">
          <mxGeometry x="300" y="20" width="320" height="860" as="geometry" />
        </mxCell>
        <mxCell id="UotE7CJrFkmpILPnAZ5Y-10" value="显示安全问题" style="rounded=1;whiteSpace=wrap;html=1;shadow=0;comic=0;labelBackgroundColor=none;strokeWidth=1;fontFamily=Verdana;fontSize=12;align=center;arcSize=50;" vertex="1" parent="UotE7CJrFkmpILPnAZ5Y-4">
          <mxGeometry x="107.49999999999955" y="90" width="85" height="30" as="geometry" />
        </mxCell>
        <mxCell id="UotE7CJrFkmpILPnAZ5Y-19" style="edgeStyle=orthogonalEdgeStyle;rounded=0;orthogonalLoop=1;jettySize=auto;html=1;" edge="1" parent="UotE7CJrFkmpILPnAZ5Y-4" source="UotE7CJrFkmpILPnAZ5Y-16" target="UotE7CJrFkmpILPnAZ5Y-18">
          <mxGeometry relative="1" as="geometry" />
        </mxCell>
        <mxCell id="UotE7CJrFkmpILPnAZ5Y-36" style="edgeStyle=orthogonalEdgeStyle;rounded=0;orthogonalLoop=1;jettySize=auto;html=1;entryX=0.5;entryY=0;entryDx=0;entryDy=0;" edge="1" parent="UotE7CJrFkmpILPnAZ5Y-4">
          <mxGeometry relative="1" as="geometry">
            <mxPoint x="211.99999999999955" y="280.7812499999998" as="sourcePoint" />
            <mxPoint x="66.99999999999955" y="330" as="targetPoint" />
            <Array as="points">
              <mxPoint x="212" y="290" />
              <mxPoint x="67" y="290" />
            </Array>
          </mxGeometry>
        </mxCell>
        <mxCell id="UotE7CJrFkmpILPnAZ5Y-16" value="验证回答" style="rhombus;whiteSpace=wrap;html=1;" vertex="1" parent="UotE7CJrFkmpILPnAZ5Y-4">
          <mxGeometry x="172.5" y="227.5" width="80" height="55" as="geometry" />
        </mxCell>
        <mxCell id="UotE7CJrFkmpILPnAZ5Y-22" style="edgeStyle=orthogonalEdgeStyle;rounded=0;orthogonalLoop=1;jettySize=auto;html=1;" edge="1" parent="UotE7CJrFkmpILPnAZ5Y-4" source="UotE7CJrFkmpILPnAZ5Y-18" target="UotE7CJrFkmpILPnAZ5Y-21">
          <mxGeometry relative="1" as="geometry" />
        </mxCell>
        <mxCell id="UotE7CJrFkmpILPnAZ5Y-18" value="提示验证成功" style="rounded=1;whiteSpace=wrap;html=1;shadow=0;comic=0;labelBackgroundColor=none;strokeWidth=1;fontFamily=Verdana;fontSize=12;align=center;arcSize=50;" vertex="1" parent="UotE7CJrFkmpILPnAZ5Y-4">
          <mxGeometry x="169.99999999999955" y="490" width="85" height="30" as="geometry" />
        </mxCell>
        <mxCell id="UotE7CJrFkmpILPnAZ5Y-20" value="回答验证成功" style="text;html=1;strokeColor=none;fillColor=none;align=center;verticalAlign=middle;whiteSpace=wrap;rounded=0;" vertex="1" parent="UotE7CJrFkmpILPnAZ5Y-4">
          <mxGeometry x="214" y="305" width="80" height="30" as="geometry" />
        </mxCell>
        <mxCell id="UotE7CJrFkmpILPnAZ5Y-24" style="edgeStyle=orthogonalEdgeStyle;rounded=0;orthogonalLoop=1;jettySize=auto;html=1;" edge="1" parent="UotE7CJrFkmpILPnAZ5Y-4" source="UotE7CJrFkmpILPnAZ5Y-21" target="UotE7CJrFkmpILPnAZ5Y-23">
          <mxGeometry relative="1" as="geometry" />
        </mxCell>
        <mxCell id="UotE7CJrFkmpILPnAZ5Y-21" value="输入新密码" style="rounded=1;whiteSpace=wrap;html=1;shadow=0;comic=0;labelBackgroundColor=none;strokeWidth=1;fontFamily=Verdana;fontSize=12;align=center;arcSize=50;" vertex="1" parent="UotE7CJrFkmpILPnAZ5Y-4">
          <mxGeometry x="169.99999999999955" y="560" width="85" height="30" as="geometry" />
        </mxCell>
        <mxCell id="UotE7CJrFkmpILPnAZ5Y-25" style="edgeStyle=orthogonalEdgeStyle;rounded=0;orthogonalLoop=1;jettySize=auto;html=1;entryX=1;entryY=0.25;entryDx=0;entryDy=0;" edge="1" parent="UotE7CJrFkmpILPnAZ5Y-4" source="UotE7CJrFkmpILPnAZ5Y-23" target="UotE7CJrFkmpILPnAZ5Y-21">
          <mxGeometry relative="1" as="geometry">
            <Array as="points">
              <mxPoint x="300" y="645" />
              <mxPoint x="300" y="568" />
            </Array>
          </mxGeometry>
        </mxCell>
        <mxCell id="UotE7CJrFkmpILPnAZ5Y-31" style="edgeStyle=orthogonalEdgeStyle;rounded=0;orthogonalLoop=1;jettySize=auto;html=1;" edge="1" parent="UotE7CJrFkmpILPnAZ5Y-4" source="UotE7CJrFkmpILPnAZ5Y-23" target="UotE7CJrFkmpILPnAZ5Y-29">
          <mxGeometry relative="1" as="geometry" />
        </mxCell>
        <mxCell id="UotE7CJrFkmpILPnAZ5Y-23" value="&lt;font style=&quot;font-size: 10px;&quot;&gt;验证新密码&lt;br&gt;合法性&lt;/font&gt;" style="rhombus;whiteSpace=wrap;html=1;" vertex="1" parent="UotE7CJrFkmpILPnAZ5Y-4">
          <mxGeometry x="172.5" y="620" width="80" height="50" as="geometry" />
        </mxCell>
        <mxCell id="UotE7CJrFkmpILPnAZ5Y-26" value="信息不合法" style="text;html=1;strokeColor=none;fillColor=none;align=center;verticalAlign=middle;whiteSpace=wrap;rounded=0;" vertex="1" parent="UotE7CJrFkmpILPnAZ5Y-4">
          <mxGeometry x="245.99999999999955" y="623" width="70" height="30" as="geometry" />
        </mxCell>
        <mxCell id="UotE7CJrFkmpILPnAZ5Y-34" style="edgeStyle=orthogonalEdgeStyle;rounded=0;orthogonalLoop=1;jettySize=auto;html=1;" edge="1" parent="UotE7CJrFkmpILPnAZ5Y-4" source="UotE7CJrFkmpILPnAZ5Y-29" target="UotE7CJrFkmpILPnAZ5Y-33">
          <mxGeometry relative="1" as="geometry" />
        </mxCell>
        <mxCell id="UotE7CJrFkmpILPnAZ5Y-29" value="保存新密码" style="rounded=1;whiteSpace=wrap;html=1;shadow=0;comic=0;labelBackgroundColor=none;strokeWidth=1;fontFamily=Verdana;fontSize=12;align=center;arcSize=50;" vertex="1" parent="UotE7CJrFkmpILPnAZ5Y-4">
          <mxGeometry x="169.99999999999955" y="710" width="85" height="30" as="geometry" />
        </mxCell>
        <mxCell id="UotE7CJrFkmpILPnAZ5Y-32" value="信息合法" style="text;html=1;strokeColor=none;fillColor=none;align=center;verticalAlign=middle;whiteSpace=wrap;rounded=0;" vertex="1" parent="UotE7CJrFkmpILPnAZ5Y-4">
          <mxGeometry x="154.99999999999955" y="680" width="60" height="30" as="geometry" />
        </mxCell>
        <mxCell id="UotE7CJrFkmpILPnAZ5Y-33" value="" style="ellipse;html=1;shape=endState;fillColor=#000000;strokeColor=#ff0000;" vertex="1" parent="UotE7CJrFkmpILPnAZ5Y-4">
          <mxGeometry x="197.49999999999955" y="770" width="30" height="30" as="geometry" />
        </mxCell>
        <mxCell id="UotE7CJrFkmpILPnAZ5Y-46" style="edgeStyle=orthogonalEdgeStyle;rounded=0;orthogonalLoop=1;jettySize=auto;html=1;exitX=0.5;exitY=1;exitDx=0;exitDy=0;entryX=0.5;entryY=0;entryDx=0;entryDy=0;" edge="1" parent="UotE7CJrFkmpILPnAZ5Y-4" source="UotE7CJrFkmpILPnAZ5Y-35" target="UotE7CJrFkmpILPnAZ5Y-44">
          <mxGeometry relative="1" as="geometry" />
        </mxCell>
        <mxCell id="UotE7CJrFkmpILPnAZ5Y-35" value="提示验证失败" style="rounded=1;whiteSpace=wrap;html=1;shadow=0;comic=0;labelBackgroundColor=none;strokeWidth=1;fontFamily=Verdana;fontSize=12;align=center;arcSize=50;" vertex="1" parent="UotE7CJrFkmpILPnAZ5Y-4">
          <mxGeometry x="22.499999999999545" y="330" width="85" height="30" as="geometry" />
        </mxCell>
        <mxCell id="UotE7CJrFkmpILPnAZ5Y-37" value="回答验证失败" style="text;html=1;strokeColor=none;fillColor=none;align=center;verticalAlign=middle;whiteSpace=wrap;rounded=0;" vertex="1" parent="UotE7CJrFkmpILPnAZ5Y-4">
          <mxGeometry x="121.49999999999955" y="266" width="80" height="30" as="geometry" />
        </mxCell>
        <mxCell id="UotE7CJrFkmpILPnAZ5Y-41" style="edgeStyle=orthogonalEdgeStyle;rounded=0;orthogonalLoop=1;jettySize=auto;html=1;entryX=0;entryY=0.5;entryDx=0;entryDy=0;" edge="1" parent="UotE7CJrFkmpILPnAZ5Y-4" source="UotE7CJrFkmpILPnAZ5Y-38" target="UotE7CJrFkmpILPnAZ5Y-18">
          <mxGeometry relative="1" as="geometry" />
        </mxCell>
        <mxCell id="UotE7CJrFkmpILPnAZ5Y-38" value="SMS验证" style="rhombus;whiteSpace=wrap;html=1;" vertex="1" parent="UotE7CJrFkmpILPnAZ5Y-4">
          <mxGeometry x="25" y="480" width="80" height="50" as="geometry" />
        </mxCell>
        <mxCell id="UotE7CJrFkmpILPnAZ5Y-40" value="验证成功" style="text;html=1;strokeColor=none;fillColor=none;align=center;verticalAlign=middle;whiteSpace=wrap;rounded=0;" vertex="1" parent="UotE7CJrFkmpILPnAZ5Y-4">
          <mxGeometry x="104.99999999999955" y="480" width="60" height="30" as="geometry" />
        </mxCell>
        <mxCell id="UotE7CJrFkmpILPnAZ5Y-44" value="发送手机验证码" style="rounded=1;whiteSpace=wrap;html=1;shadow=0;comic=0;labelBackgroundColor=none;strokeWidth=1;fontFamily=Verdana;fontSize=12;align=center;arcSize=50;" vertex="1" parent="UotE7CJrFkmpILPnAZ5Y-4">
          <mxGeometry x="22.499999999999545" y="400" width="85" height="30" as="geometry" />
        </mxCell>
        <mxCell id="UotE7CJrFkmpILPnAZ5Y-52" value="提示账号找回失败" style="rounded=1;whiteSpace=wrap;html=1;shadow=0;comic=0;labelBackgroundColor=none;strokeWidth=1;fontFamily=Verdana;fontSize=12;align=center;arcSize=50;" vertex="1" parent="UotE7CJrFkmpILPnAZ5Y-4">
          <mxGeometry x="10" y="570" width="108" height="30" as="geometry" />
        </mxCell>
        <mxCell id="UotE7CJrFkmpILPnAZ5Y-56" style="edgeStyle=orthogonalEdgeStyle;rounded=0;orthogonalLoop=1;jettySize=auto;html=1;exitX=0.5;exitY=1;exitDx=0;exitDy=0;entryX=0.513;entryY=0.152;entryDx=0;entryDy=0;entryPerimeter=0;" edge="1" parent="UotE7CJrFkmpILPnAZ5Y-4" source="UotE7CJrFkmpILPnAZ5Y-38" target="UotE7CJrFkmpILPnAZ5Y-52">
          <mxGeometry relative="1" as="geometry" />
        </mxCell>
        <mxCell id="UotE7CJrFkmpILPnAZ5Y-60" value="" style="edgeStyle=orthogonalEdgeStyle;rounded=0;orthogonalLoop=1;jettySize=auto;html=1;exitX=0.5;exitY=1;exitDx=0;exitDy=0;" edge="1" parent="UotE7CJrFkmpILPnAZ5Y-4" source="UotE7CJrFkmpILPnAZ5Y-52">
          <mxGeometry relative="1" as="geometry">
            <mxPoint x="494.00000000000045" y="740" as="sourcePoint" />
            <mxPoint x="63.999999999999545" y="630" as="targetPoint" />
          </mxGeometry>
        </mxCell>
        <mxCell id="UotE7CJrFkmpILPnAZ5Y-61" value="" style="ellipse;html=1;shape=endState;fillColor=#000000;strokeColor=#ff0000;" vertex="1" parent="UotE7CJrFkmpILPnAZ5Y-4">
          <mxGeometry x="48.999999999999545" y="630" width="30" height="30" as="geometry" />
        </mxCell>
      </root>
    </mxGraphModel>
  </diagram>
</mxfile>
